<svg width="16" height="16" viewBox="0 0 16 16" fill="none" xmlns="http://www.w3.org/2000/svg">
<circle cx="8" cy="8" r="8" fill="black"/>
<path d="M8 3.90125C9.335 3.90125 9.49333 3.90625 10.0208 3.93042C11.3758 3.99208 12.0087 4.635 12.0704 5.98C12.0946 6.50708 12.0992 6.66542 12.0992 8.00042C12.0992 9.33583 12.0942 9.49375 12.0704 10.0208C12.0083 11.3646 11.3771 12.0087 10.0208 12.0704C9.49333 12.0946 9.33583 12.0996 8 12.0996C6.665 12.0996 6.50667 12.0946 5.97958 12.0704C4.62125 12.0083 3.99167 11.3625 3.93 10.0204C3.90583 9.49333 3.90083 9.33542 3.90083 8C3.90083 6.665 3.90625 6.50708 3.93 5.97958C3.99208 4.635 4.62333 3.99167 5.97958 3.93C6.50708 3.90625 6.665 3.90125 8 3.90125ZM8 3C6.64208 3 6.47208 3.00583 5.93875 3.03C4.12292 3.11333 3.11375 4.12083 3.03042 5.93833C3.00583 6.47208 3 6.64208 3 8C3 9.35792 3.00583 9.52833 3.03 10.0617C3.11333 11.8775 4.12083 12.8867 5.93833 12.97C6.47208 12.9942 6.64208 13 8 13C9.35792 13 9.52833 12.9942 10.0617 12.97C11.8758 12.8867 12.8875 11.8792 12.9696 10.0617C12.9942 9.52833 13 9.35792 13 8C13 6.64208 12.9942 6.47208 12.97 5.93875C12.8883 4.12458 11.8796 3.11375 10.0621 3.03042C9.52833 3.00583 9.35792 3 8 3ZM8 5.4325C6.58208 5.4325 5.4325 6.58208 5.4325 8C5.4325 9.41792 6.58208 10.5679 8 10.5679C9.41792 10.5679 10.5675 9.41833 10.5675 8C10.5675 6.58208 9.41792 5.4325 8 5.4325ZM8 9.66667C7.07958 9.66667 6.33333 8.92083 6.33333 8C6.33333 7.07958 7.07958 6.33333 8 6.33333C8.92042 6.33333 9.66667 7.07958 9.66667 8C9.66667 8.92083 8.92042 9.66667 8 9.66667ZM10.6692 4.73125C10.3375 4.73125 10.0687 5 10.0687 5.33125C10.0687 5.6625 10.3375 5.93125 10.6692 5.93125C11.0004 5.93125 11.2687 5.6625 11.2687 5.33125C11.2687 5 11.0004 4.73125 10.6692 4.73125Z" fill="#CDA935"/>
</svg>
