<svg width="16" height="16" viewBox="0 0 16 16" fill="none" xmlns="http://www.w3.org/2000/svg">
<circle cx="8" cy="8" r="8" fill="black"/>
<path d="M11.0038 4.92478C10.9415 4.89338 10.8808 4.85897 10.822 4.82166C10.6511 4.7115 10.4945 4.5817 10.3554 4.43505C10.0073 4.04676 9.87733 3.65284 9.82945 3.37704H9.83137C9.79137 3.14812 9.80791 3 9.81041 3H8.22518V8.97683C8.22518 9.05707 8.22518 9.13638 8.22172 9.21475C8.22172 9.2245 8.22076 9.2335 8.22018 9.244C8.22018 9.24831 8.22018 9.25281 8.21922 9.25731C8.21922 9.25844 8.21922 9.25956 8.21922 9.26069C8.20251 9.47514 8.13201 9.68229 8.01392 9.86394C7.89582 10.0456 7.73376 10.1961 7.54198 10.3024C7.3421 10.4133 7.11604 10.4714 6.88608 10.4711C6.1475 10.4711 5.54891 9.88391 5.54891 9.15869C5.54891 8.43348 6.1475 7.84626 6.88608 7.84626C7.02589 7.84613 7.16484 7.86758 7.29777 7.90982L7.2997 6.33602C6.89615 6.28519 6.48618 6.31647 6.09565 6.42786C5.70513 6.53926 5.34251 6.72836 5.03069 6.98324C4.75746 7.21471 4.52775 7.49091 4.35191 7.79939C4.28499 7.91188 4.03252 8.36392 4.00194 9.09757C3.98272 9.51399 4.11097 9.9454 4.17212 10.1237V10.1275C4.21058 10.2325 4.3596 10.5907 4.60246 10.8928C4.7983 11.1351 5.02967 11.3479 5.28912 11.5244V11.5207L5.29297 11.5244C6.06039 12.0329 6.91127 11.9996 6.91127 11.9996C7.05857 11.9937 7.55198 11.9996 8.11231 11.7406C8.73379 11.4536 9.0876 11.0259 9.0876 11.0259C9.31363 10.7704 9.49336 10.4792 9.61908 10.1648C9.76253 9.7971 9.81041 9.35612 9.81041 9.17988V6.00904C9.82964 6.02029 10.0858 6.18547 10.0858 6.18547C10.0858 6.18547 10.4548 6.41608 11.0305 6.56626C11.4435 6.67313 12 6.69563 12 6.69563V5.1612C11.805 5.18183 11.4091 5.12183 11.0038 4.92478Z" fill="#CDA935"/>
</svg>
