<svg width="16" height="16" viewBox="0 0 16 16" fill="none" xmlns="http://www.w3.org/2000/svg">
<circle cx="8" cy="8" r="8" fill="black"/>
<path d="M11.8327 5.83286C11.7405 5.50486 11.4699 5.2471 11.1254 5.1593C10.5018 5 7.99999 5 7.99999 5C7.99999 5 5.49819 5 4.87455 5.1593C4.53013 5.2471 4.25947 5.50486 4.16727 5.83286C4 6.42678 4 7.66667 4 7.66667C4 7.66667 4 8.90656 4.16727 9.50048C4.25947 9.82848 4.53013 10.0862 4.87455 10.174C5.49819 10.3333 7.99999 10.3333 7.99999 10.3333C7.99999 10.3333 10.5018 10.3333 11.1254 10.174C11.4699 10.0862 11.7405 9.82848 11.8327 9.50048C12 8.90656 12 7.66667 12 7.66667C12 7.66667 11.9993 6.42678 11.8327 5.83286Z" fill="#CDA935"/>
<path d="M7.19928 8.80945L9.27765 7.66678L7.19928 6.52409V8.80945Z" fill="black"/>
</svg>
